<svg width="80" height="18" viewBox="0 0 80 18" fill="none" xmlns="http://www.w3.org/2000/svg"><path d="M.624 4.232c0-1.36.328-2.4.984-3.12C2.264.376 3.232.008 4.512.008c1.28 0 2.248.368 2.904 1.104.656.72.984 1.76.984 3.12v.528H5.904v-.696c0-1.104-.44-1.656-1.32-1.656-.88 0-1.32.552-1.32 1.656 0 .624.176 1.216.528 1.776.352.544.776 1.04 1.272 1.488.512.448 1.024.92 1.536 1.416.512.48.944 1.088 1.296 1.824.352.72.528 1.52.528 2.4 0 1.36-.336 2.408-1.008 3.144-.672.72-1.648 1.08-2.928 1.08s-2.256-.36-2.928-1.08C.888 15.376.552 14.328.552 12.968v-1.032h2.496v1.2c0 1.088.456 1.632 1.368 1.632.912 0 1.368-.544 1.368-1.632 0-.624-.176-1.208-.528-1.752A6.837 6.837 0 003.96 9.872c-.496-.448-1-.912-1.512-1.392a6.458 6.458 0 01-1.296-1.824 5.545 5.545 0 01-.528-2.424zM10.297.2h2.64v12.96c0 1.088.456 1.632 1.368 1.632.912 0 1.368-.544 1.368-1.632V.2h2.496v12.792c0 1.36-.336 2.408-1.008 3.144-.672.72-1.648 1.08-2.928 1.08s-2.256-.36-2.928-1.08c-.672-.736-1.008-1.784-1.008-3.144V.2zm14.05 0c2.624 0 3.936 1.384 3.936 4.152v2.184c0 2.768-1.312 4.152-3.936 4.152H23.1V17h-2.64V.2h3.888zm0 2.4H23.1v5.688h1.248c.432 0 .752-.12.96-.36.224-.24.336-.648.336-1.224v-2.52c0-.576-.112-.984-.336-1.224-.208-.24-.528-.36-.96-.36zm8.279 0v4.68h3.624v2.4h-3.624v4.92h4.56V17h-7.2V.2h7.2v2.4h-4.56zM47.51 17h-2.688c-.16-.48-.24-1.168-.24-2.064v-2.64c0-.768-.136-1.312-.408-1.632-.272-.336-.712-.504-1.32-.504h-.912V17h-2.64V.2h3.984c1.36 0 2.352.32 2.976.96.624.624.936 1.592.936 2.904v1.32c0 1.728-.576 2.864-1.728 3.408 1.168.496 1.752 1.688 1.752 3.576v2.592c0 .912.096 1.592.288 2.04zM43.214 2.6h-1.272v5.16h1.032c.528 0 .92-.136 1.176-.408.272-.272.408-.728.408-1.368V4.328c0-1.152-.448-1.728-1.344-1.728zm10.184 7.44v-2.4h3.696v5.328c0 1.36-.336 2.408-1.008 3.144-.672.72-1.648 1.08-2.928 1.08s-2.256-.36-2.928-1.08c-.672-.736-1.008-1.784-1.008-3.144V4.232c0-1.36.336-2.4 1.008-3.12.672-.736 1.648-1.104 2.928-1.104s2.256.368 2.928 1.104c.672.72 1.008 1.76 1.008 3.12v1.632h-2.496v-1.8c0-1.104-.456-1.656-1.368-1.656-.912 0-1.368.552-1.368 1.656v9.072c0 1.088.456 1.632 1.368 1.632.912 0 1.368-.544 1.368-1.632V10.04h-1.2zM61.39 17v-5.568L58.054.2h2.76l2.016 7.656L64.846.2h2.52L64.03 11.432V17h-2.64zM72.562.2l1.944 11.928L76.306.2h3.672V17h-2.496V4.952L75.658 17h-2.496L71.194 5.12V17H68.89V.2h3.672z" fill="#fff"/></svg>