<svg width="67" height="16" viewBox="0 0 67 16" fill="none" xmlns="http://www.w3.org/2000/svg"><path d="M.52 4.36c0-1.133.273-2 .82-2.6.547-.613 1.353-.92 2.42-.92s1.873.307 2.42.92c.547.6.82 1.467.82 2.6v.44H4.92v-.58c0-.92-.367-1.38-1.1-1.38-.733 0-1.1.46-1.1 1.38 0 .52.147 1.013.44 1.48.293.453.647.867 1.06 1.24.427.373.853.767 1.28 1.18.427.4.787.907 1.08 1.52.293.6.44 1.267.44 2 0 1.133-.28 2.007-.84 2.62-.56.6-1.373.9-2.44.9s-1.88-.3-2.44-.9c-.56-.613-.84-1.487-.84-2.62v-.86h2.08v1c0 .907.38 1.36 1.14 1.36.76 0 1.14-.453 1.14-1.36a2.64 2.64 0 00-.44-1.46A5.697 5.697 0 003.3 9.06c-.413-.373-.833-.76-1.26-1.16A5.381 5.381 0 01.96 6.38a4.62 4.62 0 01-.44-2.02zM8.58 1h2.2v10.8c0 .907.38 1.36 1.14 1.36.76 0 1.14-.453 1.14-1.36V1h2.08v10.66c0 1.133-.28 2.007-.84 2.62-.56.6-1.373.9-2.44.9-1.066 0-1.88-.3-2.44-.9-.56-.613-.84-1.487-.84-2.62V1zm11.71 0c2.186 0 3.28 1.153 3.28 3.46v1.82c0 2.307-1.094 3.46-3.28 3.46h-1.04V15h-2.2V1h3.24zm0 2h-1.04v4.74h1.04c.36 0 .626-.1.8-.3.186-.2.28-.54.28-1.02v-2.1c0-.48-.094-.82-.28-1.02-.174-.2-.44-.3-.8-.3zm6.898 0v3.9h3.02v2h-3.02V13h3.8v2h-6V1h6v2h-3.8zm12.404 12h-2.24c-.134-.4-.2-.973-.2-1.72v-2.2c0-.64-.114-1.093-.34-1.36-.227-.28-.594-.42-1.1-.42h-.76V15h-2.2V1h3.32c1.133 0 1.96.267 2.48.8.52.52.78 1.327.78 2.42v1.1c0 1.44-.48 2.387-1.44 2.84.973.413 1.46 1.407 1.46 2.98v2.16c0 .76.08 1.327.24 1.7zm-3.58-12h-1.06v4.3h.86c.44 0 .766-.113.98-.34.226-.227.34-.607.34-1.14V4.44c0-.96-.374-1.44-1.12-1.44zm8.486 6.2v-2h3.08v4.44c0 1.133-.28 2.007-.84 2.62-.56.6-1.373.9-2.44.9-1.066 0-1.88-.3-2.44-.9-.56-.613-.84-1.487-.84-2.62V4.36c0-1.133.28-2 .84-2.6.56-.613 1.374-.92 2.44-.92 1.067 0 1.88.307 2.44.92.56.6.84 1.467.84 2.6v1.36h-2.08v-1.5c0-.92-.38-1.38-1.14-1.38-.76 0-1.14.46-1.14 1.38v7.56c0 .907.38 1.36 1.14 1.36.76 0 1.14-.453 1.14-1.36V9.2h-1zm6.66 5.8v-4.64L48.378 1h2.3l1.68 6.38L54.038 1h2.1l-2.78 9.36V15h-2.2zm9.31-14l1.62 9.94 1.5-9.94h3.06v14h-2.08V4.96L63.048 15h-2.08l-1.64-9.9V15h-1.92V1h3.06z" fill="#fff"/></svg>